<?xml version="1.0" encoding="UTF-8"?>
<svg version="1.1" xmlns="http://www.w3.org/2000/svg" width="500" height="500">
<path d="M0 0 C4.98669007 2.49334503 8.49675474 5.99350949 11 11 C11.45641198 17.84617977 10.57485505 22.0350154 5.9375 27.375 C4 29 4 29 2 29 C2.495 33.95 2.495 33.95 3 39 C8.65237636 35.85701197 11.31565807 32.03600197 14.625 26.5625 C23.79581046 11.72361918 23.79581046 11.72361918 31 10 C36.91238086 9.37661882 42.53556871 10.05398491 48.375 11 C60.7773837 12.83643221 73.49140523 12.16377453 86 12 C87.13984859 15.41954577 86.96061034 15.8048874 85.4375 18.875 C81.96403248 25.35801301 76.84802096 28.59718563 70 31 C67.67810464 31.4054103 65.34484656 31.76072994 63 32 C64.70795034 32.62604585 66.41637998 33.25078415 68.125 33.875 C69.1253125 34.24109375 70.125625 34.6071875 71.15625 34.984375 C73.29517701 35.7482775 75.45581495 36.45180464 77.625 37.125 C80 38 80 38 81 40 C76.55932675 44.84437081 71.66931033 48.82443221 65 50 C60.32977236 50.13207657 55.67317059 50.0432701 51 50 C56.445 54.455 56.445 54.455 62 59 C60 63 60 63 58.01171875 64.046875 C50.20909708 66.40733198 50.20909708 66.40733198 46 66 C46.33 66.99 46.66 67.98 47 69 C47.85960926 77.7557343 47.21479027 84.74406707 42 92 C37.89541966 96.61267159 32.73331045 99.75939592 27 102 C26.34 102 25.68 102 25 102 C25 102.66 25 103.32 25 104 C26.051875 104.2784375 26.051875 104.2784375 27.125 104.5625 C32.07511459 107.03755729 35.09101657 111.01676342 37.375 116 C38.74012806 122.55261467 38.08647589 127.04751078 35 133 C32.26733303 136.83055966 29.55842704 139.22122048 25.5625 141.6875 C24.63566406 142.26886719 23.70882812 142.85023438 22.75390625 143.44921875 C20.21535918 144.87872681 17.72991309 145.99424255 15 147 C15.3609375 147.56847656 15.721875 148.13695312 16.09375 148.72265625 C19.04412626 153.63175452 20.96155863 157.12380839 20 163 C17.41687058 170.18555797 17.41687058 170.18555797 13.859375 172.23046875 C13.24578125 172.48441406 12.6321875 172.73835937 12 173 C11.90203125 172.40832031 11.8040625 171.81664062 11.703125 171.20703125 C10.74511562 166.14444718 9.75375474 162.75375474 6 159 C4.515 158.01 4.515 158.01 3 157 C2.98541748 157.64549805 2.97083496 158.29099609 2.95581055 158.95605469 C2.8812213 161.88796573 2.7845976 164.81875165 2.6875 167.75 C2.66494141 168.76578125 2.64238281 169.7815625 2.61914062 170.828125 C2.5659668 172.29765625 2.5659668 172.29765625 2.51171875 173.796875 C2.48553467 174.69760742 2.45935059 175.59833984 2.43237305 176.52636719 C1.92351163 179.43759466 1.01011689 180.85948385 -1 183 C-3.76142303 183.52799676 -6.16365545 183.18598981 -9 183 C-11.84097681 178.23014947 -12.41150616 174.31573873 -12.25 168.875 C-12.24484375 168.17246094 -12.2396875 167.46992188 -12.234375 166.74609375 C-12.18334099 163.37146994 -12.0365081 160.2265494 -11 157 C-15.6950052 159.28614039 -15.6950052 159.28614039 -19.375 162.8125 C-20.24106296 165.84372037 -20.63916299 168.87274594 -21 172 C-22.32 172 -23.64 172 -25 172 C-28.65895745 166.85459109 -29.67308014 162.92798631 -29.47265625 156.6015625 C-28.73565395 152.54500439 -26.98655124 150.7625599 -24 148 C-25.01707031 147.50693359 -25.01707031 147.50693359 -26.0546875 147.00390625 C-33.59088103 143.15230596 -42.24022711 138.34813131 -46.2578125 130.5625 C-47.86392504 125.01718513 -47.7251444 119.21808875 -45.9375 113.75 C-43.04584726 109.6457187 -39.55898438 105.27949219 -35 103 C-35.73605469 102.62488281 -36.47210938 102.24976563 -37.23046875 101.86328125 C-42.53004562 99.08397872 -47.08124704 96.63125349 -51 92 C-51.721875 91.236875 -52.44375 90.47375 -53.1875 89.6875 C-57.54199845 83.23082988 -57.75302285 75.5181371 -56.5 68 C-56.335 67.34 -56.17 66.68 -56 66 C-56.56847656 65.96261719 -57.13695312 65.92523438 -57.72265625 65.88671875 C-63.08435193 65.43021378 -67.1669508 64.36510918 -72 62 C-72 60.68 -72 59.36 -72 58 C-70.3203125 56.3671875 -70.3203125 56.3671875 -68.125 54.875 C-65.87699597 53.31992911 -63.93794746 51.93794746 -62 50 C-62.83402344 50.03480469 -63.66804688 50.06960937 -64.52734375 50.10546875 C-73.16912741 50.31334671 -80.45593632 49.95795303 -87.5 44.5625 C-89.96457558 42.03631003 -90.38922441 41.26903753 -91 38 C-89.66195312 37.60167969 -89.66195312 37.60167969 -88.296875 37.1953125 C-87.12640625 36.84210938 -85.9559375 36.48890625 -84.75 36.125 C-83.58984375 35.77695313 -82.4296875 35.42890625 -81.234375 35.0703125 C-78.64872928 34.21467611 -76.37713126 33.3062454 -74 32 C-74.7734375 31.86464844 -75.546875 31.72929687 -76.34375 31.58984375 C-83.72859306 30.06352099 -89.32276912 28.15425115 -94 22 C-95.37890414 19.05989593 -96.31002586 16.16956872 -97 13 C-96 12 -96 12 -93.67773438 11.91821289 C-92.15116211 11.94516235 -92.15116211 11.94516235 -90.59375 11.97265625 C-89.46517578 11.98619141 -88.33660156 11.99972656 -87.17382812 12.01367188 C-85.3552832 12.0378418 -85.3552832 12.0378418 -83.5 12.0625 C-75.4287207 12.12605338 -67.5047735 12.09642848 -59.5 11 C-58.82904297 10.91049072 -58.15808594 10.82098145 -57.46679688 10.72875977 C-56.82806641 10.64295654 -56.18933594 10.55715332 -55.53125 10.46875 C-47.15911517 9.35740467 -41.05308013 8.73630293 -34.05859375 14.03515625 C-30.35573752 17.56938146 -27.69789114 21.67687324 -25 26 C-20.4704843 33.37475231 -20.4704843 33.37475231 -14 39 C-13.34 39 -12.68 39 -12 39 C-11.7577469 36.14141347 -11.57095183 33.80451 -12 31 C-14.25 28.25 -14.25 28.25 -17 26 C-20.50384083 21.89204868 -20.50843429 17.85706996 -20.34765625 12.65625 C-19.67508677 7.51751687 -17.08541707 4.98204401 -13.375 1.625 C-8.80155451 -0.57702931 -4.99046524 -0.80465156 0 0 Z M-24 66 C-24.86625 66.86625 -25.7325 67.7325 -26.625 68.625 C-29.92047408 71.92047408 -33.70425762 73.32475406 -38 75 C-37.82900155 79.3604605 -37.60447111 81.39923731 -34.453125 84.53125 C-30.8956492 87.30930267 -27.10373779 88.82577308 -22.875 90.3125 C-22.17246094 90.57611328 -21.46992188 90.83972656 -20.74609375 91.11132812 C-17.27261131 92.37530803 -14.73769335 93 -11 93 C-11 82.11 -11 71.22 -11 60 C-15.57235343 60 -20.20236039 63.65488824 -24 66 Z M2 61 C2 71.56 2 82.12 2 93 C16.73072942 89.8516688 16.73072942 89.8516688 28.20703125 80.74609375 C29.15715509 79.0036693 29.15715509 79.0036693 28.91015625 76.921875 C27.65623777 74.27411581 26.3142674 73.87863352 23.625 72.8125 C22.83351563 72.48894531 22.04203125 72.16539062 21.2265625 71.83203125 C19.49724342 71.18581201 17.75137929 70.5837931 16 70 C15.71125 69.20207031 15.4225 68.40414062 15.125 67.58203125 C14.2256637 64.82822495 14.2256637 64.82822495 11.6875 63.63671875 C10.3571875 63.16685547 10.3571875 63.16685547 9 62.6875 C8.113125 62.36136719 7.22625 62.03523438 6.3125 61.69921875 C4.08358266 60.90352535 4.08358266 60.90352535 2 61 Z M2 112 C2 120.25 2 128.5 2 137 C13.13046733 133.53850225 13.13046733 133.53850225 21 126 C21.58345476 123.04253508 21.58345476 123.04253508 21 120 C17.05848782 115.37891676 10.69000126 113.65591368 5 112 C4.01 112 3.02 112 2 112 Z M-29.3125 118.3125 C-31.24910886 120.96229938 -31.24910886 120.96229938 -31.375 124.4375 C-29.35108302 129.68128491 -25.90953385 131.53402409 -21 134 C-18.04051367 135.18379453 -15.07689125 136.1707669 -12 137 C-10.72138385 134.44276771 -10.88663391 132.63262898 -10.90234375 129.7734375 C-10.90556641 128.7421875 -10.90878906 127.7109375 -10.91210938 126.6484375 C-10.92048828 125.56820312 -10.92886719 124.48796875 -10.9375 123.375 C-10.94201172 122.28703125 -10.94652344 121.1990625 -10.95117188 120.078125 C-10.96298224 117.38536211 -10.97945222 114.69270812 -11 112 C-17.08741391 112 -24.6237776 114.30118509 -29.3125 118.3125 Z " fill="#68C7FC" transform="translate(255,115)"/>
<path d="M0 0 C1.875 1.5625 1.875 1.5625 2.875 2.5625 C3.20553681 9.0630573 2.91446294 13.90501798 -1.1875 19.25 C-4.91293504 22.18278929 -8.59020715 23.34729407 -13.125 24.5625 C-11.95178719 30.10859692 -10.80904655 32.40202773 -6.125 35.5625 C-3.57689474 36.77411793 -0.9694742 37.74268697 1.6875 38.6875 C2.36103516 38.93886719 3.03457031 39.19023437 3.72851562 39.44921875 C5.76614557 40.19407486 7.8121555 40.89078472 9.875 41.5625 C10.87152588 41.88879395 10.87152588 41.88879395 11.88818359 42.22167969 C20.08425191 44.61261679 27.16707494 42.41160944 35 39.75 C35.77214844 39.50185547 36.54429687 39.25371094 37.33984375 38.99804688 C43.51764151 36.93001066 49.45393432 34.45433534 52.875 28.5625 C52.875 27.5725 52.875 26.5825 52.875 25.5625 C52.28332031 25.33175781 51.69164062 25.10101563 51.08203125 24.86328125 C45.50675049 22.56222736 40.70508145 20.22266289 37.875 14.5625 C37.80407158 12.3552077 37.79084975 10.14582548 37.8125 7.9375 C37.82152344 6.74898437 37.83054687 5.56046875 37.83984375 4.3359375 C37.85144531 3.42070312 37.86304688 2.50546875 37.875 1.5625 C43.38341199 -2.010524 48.52120422 -2.22381612 54.875 -1.4375 C61.62182575 0.40254339 65.39881656 4.68222708 68.875 10.5625 C72.55458707 17.10244532 72.80069917 24.21861994 71.875 31.5625 C69.4208022 39.51410088 64.8252762 44.69277466 57.71875 48.8125 C52.44791667 51.5625 52.44791667 51.5625 49.875 51.5625 C49.875 52.2225 49.875 52.8825 49.875 53.5625 C50.926875 53.8409375 50.926875 53.8409375 52 54.125 C56.95011459 56.60005729 59.96601657 60.57926342 62.25 65.5625 C63.61512806 72.11511467 62.96147589 76.61001078 59.875 82.5625 C57.14233303 86.39305966 54.43342704 88.78372048 50.4375 91.25 C49.51066406 91.83136719 48.58382812 92.41273438 47.62890625 93.01171875 C45.09035918 94.44122681 42.60491309 95.55674255 39.875 96.5625 C40.2359375 97.13097656 40.596875 97.69945312 40.96875 98.28515625 C43.91912626 103.19425452 45.83655863 106.68630839 44.875 112.5625 C42.29187058 119.74805797 42.29187058 119.74805797 38.734375 121.79296875 C38.12078125 122.04691406 37.5071875 122.30085938 36.875 122.5625 C36.77703125 121.97082031 36.6790625 121.37914062 36.578125 120.76953125 C35.62011562 115.70694718 34.62875474 112.31625474 30.875 108.5625 C29.885 107.9025 28.895 107.2425 27.875 106.5625 C27.86041748 107.20799805 27.84583496 107.85349609 27.83081055 108.51855469 C27.7562213 111.45046573 27.6595976 114.38125165 27.5625 117.3125 C27.53994141 118.32828125 27.51738281 119.3440625 27.49414062 120.390625 C27.45869141 121.3703125 27.42324219 122.35 27.38671875 123.359375 C27.36053467 124.26010742 27.33435059 125.16083984 27.30737305 126.08886719 C26.79851163 129.00009466 25.88511689 130.42198385 23.875 132.5625 C21.11357697 133.09049676 18.71134455 132.74848981 15.875 132.5625 C13.03402319 127.79264947 12.46349384 123.87823873 12.625 118.4375 C12.63015625 117.73496094 12.6353125 117.03242188 12.640625 116.30859375 C12.69165901 112.93396994 12.8384919 109.7890494 13.875 106.5625 C9.1799948 108.84864039 9.1799948 108.84864039 5.5 112.375 C4.63393704 115.40622037 4.23583701 118.43524594 3.875 121.5625 C2.555 121.5625 1.235 121.5625 -0.125 121.5625 C-3.78395745 116.41709109 -4.79808014 112.49048631 -4.59765625 106.1640625 C-3.86065395 102.10750439 -2.11155124 100.3250599 0.875 97.5625 C0.19695312 97.23378906 -0.48109375 96.90507812 -1.1796875 96.56640625 C-8.71588103 92.71480596 -17.36522711 87.91063131 -21.3828125 80.125 C-22.98892504 74.57968513 -22.8501444 68.78058875 -21.0625 63.3125 C-18.17084726 59.2082187 -14.68398438 54.84199219 -10.125 52.5625 C-10.86105469 52.18738281 -11.59710938 51.81226563 -12.35546875 51.42578125 C-17.65504562 48.64647872 -22.20624704 46.19375349 -26.125 41.5625 C-26.846875 40.799375 -27.56875 40.03625 -28.3125 39.25 C-32.02684427 33.74252401 -32.89231054 27.12060725 -32.125 20.5625 C-30.48914194 12.44711039 -27.65923961 6.30333888 -21.0625 1.1875 C-14.7865177 -2.28432 -6.57208917 -3.02316102 0 0 Z M26.875 61.5625 C26.875 69.8125 26.875 78.0625 26.875 86.5625 C38.00546733 83.10100225 38.00546733 83.10100225 45.875 75.5625 C46.45845476 72.60503508 46.45845476 72.60503508 45.875 69.5625 C41.93348782 64.94141676 35.56500126 63.21841368 29.875 61.5625 C28.885 61.5625 27.895 61.5625 26.875 61.5625 Z M-4.4375 67.875 C-6.37410886 70.52479938 -6.37410886 70.52479938 -6.5 74 C-4.47608302 79.24378491 -1.03453385 81.09652409 3.875 83.5625 C6.83448633 84.74629453 9.79810875 85.7332669 12.875 86.5625 C14.15361615 84.00526771 13.98836609 82.19512898 13.97265625 79.3359375 C13.96943359 78.3046875 13.96621094 77.2734375 13.96289062 76.2109375 C13.95451172 75.13070312 13.94613281 74.05046875 13.9375 72.9375 C13.93298828 71.84953125 13.92847656 70.7615625 13.92382812 69.640625 C13.91201776 66.94786211 13.89554778 64.25520812 13.875 61.5625 C7.78758609 61.5625 0.2512224 63.86368509 -4.4375 67.875 Z " fill="#3B5FDE" transform="translate(230.125,165.4375)"/>
<path d="M0 0 C0 0.99 0 1.98 0 3 C2.475 3.99 2.475 3.99 5 5 C5 5.99 5 6.98 5 8 C5.763125 7.896875 6.52625 7.79375 7.3125 7.6875 C8.6428125 7.8421875 8.6428125 7.8421875 10 8 C13.89041042 13.00195625 14.42116176 17.78786402 14 24 C11.51610889 31.20328421 8.02665111 35.69783669 1.5625 39.6875 C0.17224609 40.55955078 0.17224609 40.55955078 -1.24609375 41.44921875 C-3.78464082 42.87872681 -6.27008691 43.99424255 -9 45 C-8.6390625 45.56847656 -8.278125 46.13695312 -7.90625 46.72265625 C-4.95587374 51.63175452 -3.03844137 55.12380839 -4 61 C-6.58312942 68.18555797 -6.58312942 68.18555797 -10.140625 70.23046875 C-10.75421875 70.48441406 -11.3678125 70.73835938 -12 71 C-12.09796875 70.40832031 -12.1959375 69.81664062 -12.296875 69.20703125 C-13.25488438 64.14444718 -14.24624526 60.75375474 -18 57 C-18.99 56.34 -19.98 55.68 -21 55 C-21.01458252 55.64549805 -21.02916504 56.29099609 -21.04418945 56.95605469 C-21.1187787 59.88796573 -21.2154024 62.81875165 -21.3125 65.75 C-21.33505859 66.76578125 -21.35761719 67.7815625 -21.38085938 68.828125 C-21.41630859 69.8078125 -21.45175781 70.7875 -21.48828125 71.796875 C-21.51446533 72.69760742 -21.54064941 73.59833984 -21.56762695 74.52636719 C-22.07648837 77.43759466 -22.98988311 78.85948385 -25 81 C-27.76142303 81.52799676 -30.16365545 81.18598981 -33 81 C-35.84097681 76.23014947 -36.41150616 72.31573873 -36.25 66.875 C-36.24484375 66.17246094 -36.2396875 65.46992188 -36.234375 64.74609375 C-36.18334099 61.37146994 -36.0365081 58.2265494 -35 55 C-39.6950052 57.28614039 -39.6950052 57.28614039 -43.375 60.8125 C-44.24106296 63.84372037 -44.63916299 66.87274594 -45 70 C-46.32 70 -47.64 70 -49 70 C-52.65895745 64.85459109 -53.67308014 60.92798631 -53.47265625 54.6015625 C-52.73565395 50.54500439 -50.98655124 48.7625599 -48 46 C-48.825 45.566875 -49.65 45.13375 -50.5 44.6875 C-51.325 44.130625 -52.15 43.57375 -53 43 C-53 42.01 -53 41.02 -53 40 C-54.65 39.67 -56.3 39.34 -58 39 C-58.495 37.515 -58.495 37.515 -59 36 C-58.34 35.34 -57.68 34.68 -57 34 C-56.6278958 32.67696283 -56.29369827 31.34262065 -56 30 C-55.67 29.34 -55.34 28.68 -55 28 C-54.01 28.33 -53.02 28.66 -52 29 C-52 29.66 -52 30.32 -52 31 C-50.68 31.33 -49.36 31.66 -48 32 C-48 32.66 -48 33.32 -48 34 C-44.04 34 -40.08 34 -36 34 C-36 25.75 -36 17.5 -36 9 C-34.2159375 8.60167969 -32.431875 8.20335937 -30.59375 7.79296875 C-28.22909994 7.25810743 -25.86452029 6.72293473 -23.5 6.1875 C-22.32695312 5.92646484 -21.15390625 5.66542969 -19.9453125 5.39648438 C-13.86086844 4.01210244 -6.07052422 0 0 0 Z M-22 10 C-22 18.25 -22 26.5 -22 35 C-10.86953267 31.53850225 -10.86953267 31.53850225 -3 24 C-2.41654524 21.04253508 -2.41654524 21.04253508 -3 18 C-6.94151218 13.37891676 -13.30999874 11.65591368 -19 10 C-19.99 10 -20.98 10 -22 10 Z " fill="#3A60E1" transform="translate(279,217)"/>
<path d="M0 0 C6.70705323 2.89652011 10.64011335 8.55981187 13.59765625 15.06640625 C16.0278213 22.51793643 15.92157062 30.68004411 12.66015625 37.81640625 C8.51600722 44.99882185 2.38663816 49.38378688 -5.27734375 52.37890625 C-5.93734375 52.37890625 -6.59734375 52.37890625 -7.27734375 52.37890625 C-7.27734375 53.03890625 -7.27734375 53.69890625 -7.27734375 54.37890625 C-6.51421875 54.62640625 -5.75109375 54.87390625 -4.96484375 55.12890625 C-2.04093925 56.48886183 -0.97730019 57.69476451 0.72265625 60.37890625 C-1.75234375 60.87390625 -1.75234375 60.87390625 -4.27734375 61.37890625 C-4.27734375 60.05890625 -4.27734375 58.73890625 -4.27734375 57.37890625 C-5.59734375 56.71890625 -6.91734375 56.05890625 -8.27734375 55.37890625 C-8.27734375 54.38890625 -8.27734375 53.39890625 -8.27734375 52.37890625 C-9.22609375 52.27578125 -10.17484375 52.17265625 -11.15234375 52.06640625 C-15.14503094 51.50292217 -18.8649677 50.34753101 -22.703125 49.13671875 C-25.9540516 48.17969332 -29.23184635 47.52086974 -32.5625 46.90625 C-33.12839844 46.73222656 -33.69429687 46.55820313 -34.27734375 46.37890625 C-34.60734375 45.71890625 -34.93734375 45.05890625 -35.27734375 44.37890625 C-34.71337891 44.22333252 -34.14941406 44.06775879 -33.56835938 43.9074707 C-30.96749194 43.18190111 -28.37259279 42.43681135 -25.77734375 41.69140625 C-24.89046875 41.44712891 -24.00359375 41.20285156 -23.08984375 40.95117188 C-16.32101232 38.98522451 -10.18375232 36.46696535 -5.27734375 31.25390625 C-4.04204963 29.29189645 -4.04204963 29.29189645 -4.27734375 26.37890625 C-4.86902344 26.14816406 -5.46070313 25.91742188 -6.0703125 25.6796875 C-11.64559326 23.37863361 -16.4472623 21.03906914 -19.27734375 15.37890625 C-19.34827217 13.17161395 -19.361494 10.96223173 -19.33984375 8.75390625 C-19.33082031 7.56539062 -19.32179688 6.376875 -19.3125 5.15234375 C-19.30089844 4.23710937 -19.28929687 3.321875 -19.27734375 2.37890625 C-13.30813916 -1.49301024 -6.78469518 -1.85037141 0 0 Z " fill="#3A61E2" transform="translate(287.27734375,164.62109375)"/>
<path d="M0 0 C1.875 1.5625 1.875 1.5625 2.875 2.5625 C3.20553681 9.0630573 2.91446294 13.90501798 -1.1875 19.25 C-4.91293504 22.18278929 -8.59020715 23.34729407 -13.125 24.5625 C-12.48261043 26.90263344 -11.81179942 29.23501306 -11.125 31.5625 C-10.939375 32.47 -10.75375 33.3775 -10.5625 34.3125 C-8.19941757 38.01123772 -4.22701091 38.52433674 -0.125 39.5625 C-1.445 40.5525 -2.765 41.5425 -4.125 42.5625 C-5.115 41.5725 -6.105 40.5825 -7.125 39.5625 C-7.455 40.2225 -7.785 40.8825 -8.125 41.5625 C-9.445 41.2325 -10.765 40.9025 -12.125 40.5625 C-13.63430183 43.9488251 -13.63430183 43.9488251 -14.125 47.5625 C-15.115 47.5625 -16.105 47.5625 -17.125 47.5625 C-17.125 46.9025 -17.125 46.2425 -17.125 45.5625 C-17.66125 45.48 -18.1975 45.3975 -18.75 45.3125 C-23.52304362 43.80522307 -27.6808089 40.96204399 -30.125 36.5625 C-33.04272217 27.34864052 -32.77774776 19.5190375 -29.125 10.5625 C-26.22885861 5.17074742 -22.29739886 0.88847421 -16.28125 -1.0234375 C-10.81572929 -2.0729759 -5.08734033 -2.34017655 0 0 Z " fill="#3B60E3" transform="translate(230.125,165.4375)"/>
<path d="M0 0 C8 0 8 0 9.91796875 1.74414062 C10.33691406 2.54013672 10.75585938 3.33613281 11.1875 4.15625 C11.65800781 5.01347656 12.12851562 5.87070312 12.61328125 6.75390625 C13.07089844 7.66011719 13.52851562 8.56632812 14 9.5 C14.48855469 10.40621094 14.97710937 11.31242187 15.48046875 12.24609375 C16.6820032 14.48424616 17.85285387 16.73362501 19 19 C22.79501363 13.44514631 26.18300472 7.93322609 29.1171875 1.87109375 C31 0 31 0 39 0 C39 11.22 39 22.44 39 34 C36.36 34 33.72 34 31 34 C30.67 28.72 30.34 23.44 30 18 C27.57170504 22.2667732 27.57170504 22.2667732 25.18481445 26.55664062 C23.56790327 29.28916631 22.56709056 30.81569557 19.5 31.8125 C15.73036854 30.58736978 14.49482488 27.7961474 12.6875 24.5 C11.470625 22.355 10.25375 20.21 9 18 C8.67 23.28 8.34 28.56 8 34 C5.36 34 2.72 34 0 34 C0 22.78 0 11.56 0 0 Z " fill="#1C2DA0" transform="translate(47,321)"/>
<path d="M0 0 C8 0 8 0 9.87036133 1.12988281 C10.2702124 1.64905273 10.67006348 2.16822266 11.08203125 2.703125 C11.53900391 3.27160156 11.99597656 3.84007812 12.46679688 4.42578125 C13.13291992 5.32876953 13.13291992 5.32876953 13.8125 6.25 C14.27591797 6.83652344 14.73933594 7.42304688 15.21679688 8.02734375 C16.50447904 9.66688185 17.75714756 11.32632842 19 13 C19.99 14.32 20.98 15.64 22 17 C22.33 11.39 22.66 5.78 23 0 C25.97 0 28.94 0 32 0 C32 11.22 32 22.44 32 34 C24 34 24 34 22.02197266 32.76245117 C21.5738623 32.19502197 21.12575195 31.62759277 20.6640625 31.04296875 C20.15746094 30.42486328 19.65085937 29.80675781 19.12890625 29.16992188 C18.63261719 28.51572266 18.13632812 27.86152344 17.625 27.1875 C16.84576172 26.22360352 16.84576172 26.22360352 16.05078125 25.24023438 C13.90063422 22.5594955 11.90767757 19.86151636 10 17 C9.67 22.61 9.34 28.22 9 34 C6.03 34 3.06 34 0 34 C0 22.78 0 11.56 0 0 Z " fill="#1A2DA9" transform="translate(315,321)"/>
<path d="M0 0 C8 0 8 0 10.3203125 1.90625 C10.91585938 2.7621875 11.51140625 3.618125 12.125 4.5 C13.10339844 5.85738281 13.10339844 5.85738281 14.1015625 7.2421875 C14.72804688 8.15226562 15.35453125 9.06234375 16 10 C17.16080096 11.54608808 18.32681258 13.08828972 19.5 14.625 C20.325 15.73875 21.15 16.8525 22 18 C22.33 12.06 22.66 6.12 23 0 C25.97 0 28.94 0 32 0 C32 11.22 32 22.44 32 34 C23 34 23 34 20.58203125 32.05859375 C19.99808594 31.19363281 19.41414063 30.32867187 18.8125 29.4375 C18.16925781 28.53128906 17.52601563 27.62507813 16.86328125 26.69140625 C15.94095703 25.35916016 15.94095703 25.35916016 15 24 C13.85305647 22.60850561 12.68883224 21.23088127 11.5 19.875 C10.2625 18.451875 10.2625 18.451875 9 17 C8.67 22.61 8.34 28.22 8 34 C5.36 34 2.72 34 0 34 C0 22.78 0 11.56 0 0 Z " fill="#1B2DA2" transform="translate(274,321)"/>
<path d="M0 0 C4.55632618 5.44536544 5.58446049 9.98647417 5 17 C3.18662342 22.27258952 0.76736416 25.94399733 -4 29 C-7.05919388 30.01973129 -9.12418025 30.11533602 -12.32421875 30.09765625 C-13.71386841 30.09390991 -13.71386841 30.09390991 -15.1315918 30.09008789 C-16.3050415 30.08098389 -17.47849121 30.07187988 -18.6875 30.0625 C-22.420625 30.041875 -26.15375 30.02125 -30 30 C-30 18.78 -30 7.56 -30 -4 C-6.98830726 -5.9943467 -6.98830726 -5.9943467 0 0 Z M-21 3 C-21 9.6 -21 16.2 -21 23 C-12.26507648 23.65728154 -12.26507648 23.65728154 -6 20 C-3.67150953 16.78446554 -3.45542993 13.88978623 -4 10 C-6.06772585 6.57234676 -8.12128235 4.29290588 -12 3 C-14.97 3 -17.94 3 -21 3 Z " fill="#1A2DAC" transform="translate(161,325)"/>
<path d="M0 0 C4.23498768 3.13389088 6.46600581 6.33551742 8.125 11.3125 C8.66403153 17.67307211 7.75863485 22.00361791 4.125 27.3125 C-0.36868622 31.6909635 -4.48033947 33.40276787 -10.6875 33.6875 C-17.16382168 33.54272381 -21.74309287 31.50050995 -26.25 26.875 C-29.45774066 21.81663973 -30.774096 17.33977319 -29.875 11.3125 C-28.11628716 6.0743877 -25.68057009 2.21819354 -20.875 -0.6875 C-14.04458204 -3.50002504 -6.62588213 -3.39825285 0 0 Z M-18.875 8.3125 C-21.2345588 12.0813516 -21.0906499 14.89389783 -20.46875 19.18359375 C-19.95868254 21.55362759 -19.95868254 21.55362759 -17.8125 23.875 C-14.01889674 25.73144415 -11.02220686 26.16707596 -6.875 25.3125 C-4.0649654 23.51886089 -2.36559532 22.29369065 -0.875 19.3125 C-0.4998545 14.34182218 -0.71621201 11.26098498 -3.875 7.3125 C-8.85924831 3.70321674 -14.22486731 4.69573013 -18.875 8.3125 Z " fill="#1A2DA8" transform="translate(257.875,322.6875)"/>
<path d="M0 0 C8.58 0 17.16 0 26 0 C26 2.31 26 4.62 26 7 C20.39 7 14.78 7 9 7 C9 8.98 9 10.96 9 13 C13.95 13 18.9 13 24 13 C24 15.31 24 17.62 24 20 C19.05 20 14.1 20 9 20 C9 22.31 9 24.62 9 27 C14.94 27 20.88 27 27 27 C27 29.31 27 31.62 27 34 C18.09 34 9.18 34 0 34 C0 22.78 0 11.56 0 0 Z " fill="#1C2E96" transform="translate(357,321)"/>
<path d="M0 0 C8.58 0 17.16 0 26 0 C26 2.31 26 4.62 26 7 C20.06 7 14.12 7 8 7 C8 8.98 8 10.96 8 13 C13.28 13 18.56 13 24 13 C24 15.31 24 17.62 24 20 C18.72 20 13.44 20 8 20 C8 22.31 8 24.62 8 27 C14.27 27 20.54 27 27 27 C27 29.31 27 31.62 27 34 C18.09 34 9.18 34 0 34 C0 22.78 0 11.56 0 0 Z " fill="#1A2DA8" transform="translate(96,321)"/>
<path d="M0 0 C2 2.1875 2 2.1875 3 4 C1.02 5.65 -0.96 7.3 -3 9 C-3.639375 8.484375 -4.27875 7.96875 -4.9375 7.4375 C-9.17537758 5.44829215 -12.53561977 5.76132803 -17 7 C-19.25463249 8.4228264 -19.25463249 8.4228264 -20 11 C-20.62388198 15.91307062 -20.75777063 17.86334406 -18 22 C-13.8976444 24.73490373 -11.86581934 24.5493667 -7 24 C-6.01 23.34 -5.02 22.68 -4 22 C-2 22.125 -2 22.125 0 23 C1.75 25.0625 1.75 25.0625 3 27 C-2.8777803 32.09407626 -6.41677931 33.32085912 -14.28125 33.20703125 C-19.78042405 32.78827231 -22.75575645 30.46778231 -26.3125 26.5 C-29.99357415 22.09430495 -30.3464845 18.164171 -30.28125 12.5703125 C-29.72141534 7.45404571 -27.2966534 4.26253094 -23.625 0.6875 C-16.00120875 -4.21350866 -7.90702597 -4.25625947 0 0 Z " fill="#1A2CAA" transform="translate(220,323)"/>
<path d="M0 0 C0.78375 0.721875 1.5675 1.44375 2.375 2.1875 C2.375 3.5075 2.375 4.8275 2.375 6.1875 C-0.125 7.9375 -0.125 7.9375 -2.625 9.1875 C-3.32625 8.6925 -4.0275 8.1975 -4.75 7.6875 C-8.06981731 5.95542141 -9.92957817 5.79437002 -13.625 6.1875 C-16.23436497 7.05728832 -17.28535593 7.64240689 -18.7421875 9.98046875 C-20.25313129 13.75782822 -19.61523472 17.31458197 -18.625 21.1875 C-17.2021736 23.44213249 -17.2021736 23.44213249 -14.625 24.1875 C-10.31932661 24.70834759 -7.34322227 24.66631485 -3.625 22.1875 C-0.32370394 22.49699651 1.2336563 23.72495474 3.375 26.1875 C2.25323088 29.55280737 1.92011927 29.80867479 -1.0625 31.375 C-6.59795483 33.93972773 -12.06605095 34.33101112 -17.8984375 32.45703125 C-23.15931652 30.06127779 -26.11781573 26.9757909 -28.875 21.875 C-30.66214532 15.47106259 -30.02130346 10.65337331 -26.8203125 4.9453125 C-24.29016966 1.2245142 -21.54334358 -0.43435853 -17.4375 -2.125 C-11.4291003 -3.20848191 -5.3782425 -3.21677389 0 0 Z " fill="#1A2DA7" transform="translate(419.625,322.8125)"/>
<path d="M0 0 C0.69480469 0.18014648 1.38960938 0.36029297 2.10546875 0.54589844 C6.87517314 1.80991484 11.44851499 3.29104791 16 5.1875 C12.01162874 9.17587126 5.34095422 9.77286888 0 11.1875 C-0.87269531 11.43113281 -1.74539063 11.67476562 -2.64453125 11.92578125 C-3.38058594 12.11527344 -4.11664063 12.30476562 -4.875 12.5 C-5.49117187 12.66113281 -6.10734375 12.82226562 -6.7421875 12.98828125 C-13.09931815 13.54920454 -19.60270409 11.71858135 -25.75 10.25 C-26.86181641 9.99573242 -26.86181641 9.99573242 -27.99609375 9.73632812 C-31.55463949 8.89620467 -34.83138375 8.04697743 -38 6.1875 C-34.26685976 2.76545478 -30.01827797 1.78946079 -25.25 0.5 C-24.4765625 0.27505859 -23.703125 0.05011719 -22.90625 -0.18164062 C-14.86820856 -2.40019401 -8.03229149 -2.1640397 0 0 Z " fill="#1930AF" transform="translate(261,211.8125)"/>
<path d="M0 0 C10.23 0 20.46 0 31 0 C31 2.31 31 4.62 31 7 C27.37 7 23.74 7 20 7 C20 15.91 20 24.82 20 34 C17.03 34 14.06 34 11 34 C11 25.09 11 16.18 11 7 C7.37 7 3.74 7 0 7 C0 4.69 0 2.38 0 0 Z " fill="#1A2CAC" transform="translate(426,321)"/>
<path d="M0 0 C0.6180249 0.32524658 1.2360498 0.65049316 1.87280273 0.9855957 C1.79224466 5.1114154 1.67937589 9.23572201 1.56030273 13.3605957 C1.52646484 15.1240332 1.52646484 15.1240332 1.49194336 16.9230957 C1.45649414 18.04458008 1.42104492 19.16606445 1.38452148 20.3215332 C1.3583374 21.35842285 1.33215332 22.3953125 1.30517578 23.46362305 C1.09115112 24.71199951 1.09115112 24.71199951 0.87280273 25.9855957 C-2.1526406 28.00255793 -2.73787109 28.24370667 -6.12719727 28.1730957 C-6.80782227 28.16665039 -7.48844727 28.16020508 -8.18969727 28.15356445 C-10.12719727 27.9855957 -10.12719727 27.9855957 -13.12719727 26.9855957 C-13.12719727 18.0755957 -13.12719727 9.1655957 -13.12719727 -0.0144043 C-8.80546166 -1.45498283 -4.17721307 -1.99200279 0 0 Z " fill="#63C7F9" transform="translate(256.127197265625,226.014404296875)"/>
<path d="M0 0 C0.08714316 3.91652632 0.14043985 7.83280311 0.1875 11.75 C0.22520508 13.41675781 0.22520508 13.41675781 0.26367188 15.1171875 C0.27817383 16.72207031 0.27817383 16.72207031 0.29296875 18.359375 C0.31653442 19.83615723 0.31653442 19.83615723 0.34057617 21.34277344 C-0.05451305 24.42531899 -0.86135749 25.77830341 -3 28 C-5.76142303 28.52799676 -8.16365545 28.18598981 -11 28 C-14.4731871 22.48539177 -14.51735302 17.62465965 -14.5 11.3125 C-14.52835938 10.36310547 -14.55671875 9.41371094 -14.5859375 8.43554688 C-14.59323833 5.85652709 -14.53145685 3.52391154 -14 1 C-9.78666501 -2.95581367 -5.05733983 -2.52866992 0 0 Z " fill="#68C9FB" transform="translate(257,270)"/>
<path d="M0 0 C2.97 0 5.94 0 9 0 C9 11.22 9 22.44 9 34 C6.03 34 3.06 34 0 34 C0 22.78 0 11.56 0 0 Z " fill="#182D9C" transform="translate(173,321)"/>
<path d="M0 0 C1.67397054 0.96662701 3.34326042 1.94162897 5 2.9375 C-0.34602126 6.50151418 -7.66312616 8.48643776 -14.125 7.8125 C-18.83111302 6.74982932 -23.41406892 5.43168656 -28 3.9375 C-27 0.9375 -27 0.9375 -24.33984375 -0.484375 C-14.14808326 -4.46278897 -9.60702077 -5.13352255 0 0 Z " fill="#1930B0" transform="translate(262,259.0625)"/>
<path d="M0 0 C0.99 0.33 1.98 0.66 3 1 C3 1.66 3 2.32 3 3 C3.66 3 4.32 3 5 3 C5 2.01 5 1.02 5 0 C6.98 0 8.96 0 11 0 C11.66 1.32 12.32 2.64 13 4 C11.02 4 9.04 4 7 4 C7 11.59 7 19.18 7 27 C6.34 27 5.68 27 5 27 C5.33 27.99 5.66 28.98 6 30 C4.02 30.33 2.04 30.66 0 31 C0 20.77 0 10.54 0 0 Z " fill="#192CA9" transform="translate(133,323)"/>
<path d="M0 0 C2.97 0.495 2.97 0.495 6 1 C6 11.23 6 21.46 6 32 C4.02 32 2.04 32 0 32 C-0.66 31.01 -1.32 30.02 -2 29 C-0.5 25.5 -0.5 25.5 1 22 C0.34 21.01 -0.32 20.02 -1 19 C-1.24291992 17.02294922 -1.24291992 17.02294922 -1.23046875 14.8046875 C-1.22853516 14.00675781 -1.22660156 13.20882813 -1.22460938 12.38671875 C-1.21236328 11.55785156 -1.20011719 10.72898437 -1.1875 9.875 C-1.18685547 9.03839844 -1.18621094 8.20179688 -1.18554688 7.33984375 C-1.14033163 1.14033163 -1.14033163 1.14033163 0 0 Z " fill="#1A2CAB" transform="translate(299,322)"/>
<path d="M0 0 C1.65 0 3.3 0 5 0 C5.33 2.31 5.66 4.62 6 7 C11.94 7 17.88 7 24 7 C24 8.98 24 10.96 24 13 C20.37506666 13.05787784 16.75025143 13.0935542 13.125 13.125 C12.09246094 13.14175781 11.05992187 13.15851563 9.99609375 13.17578125 C9.00996094 13.18222656 8.02382813 13.18867188 7.0078125 13.1953125 C5.64100342 13.21102295 5.64100342 13.21102295 4.24658203 13.22705078 C2 13 2 13 0 11 C-0.1953125 8.3984375 -0.1953125 8.3984375 -0.125 5.375 C-0.10695313 4.37210937 -0.08890625 3.36921875 -0.0703125 2.3359375 C-0.04710937 1.56507813 -0.02390625 0.79421875 0 0 Z " fill="#192CAA" transform="translate(359,342)"/>
<path d="M0 0 C6.6 0 13.2 0 20 0 C19.67 0.66 19.34 1.32 19 2 C15.04 2 11.08 2 7 2 C7 2.99 7 3.98 7 5 C6.34 5 5.68 5 5 5 C4.01 4.01 3.02 3.02 2 2 C2 12.23 2 22.46 2 33 C3.65 32.34 5.3 31.68 7 31 C7 30.34 7 29.68 7 29 C7.66 29 8.32 29 9 29 C9 28.34 9 27.68 9 27 C12.96 26.67 16.92 26.34 21 26 C21 26.66 21 27.32 21 28 C18.03 28.33 15.06 28.66 12 29 C12 29.99 12 30.98 12 32 C12.99 32.33 13.98 32.66 15 33 C15 33.33 15 33.66 15 34 C10.05 34 5.1 34 0 34 C0 22.78 0 11.56 0 0 Z " fill="#203191" transform="translate(131,321)"/>
<path d="M0 0 C8.58 0 17.16 0 26 0 C26 2.31 26 4.62 26 7 C20.06 7 14.12 7 8 7 C8 6.67 8 6.34 8 6 C13.61 6 19.22 6 25 6 C25 4.35 25 2.7 25 1 C17.08 1 9.16 1 1 1 C1.33 10.9 1.66 20.8 2 31 C7.7173759 31.57173759 13.40073583 32.13622501 19.125 32.5625 C20.24132812 32.64628906 21.35765625 32.73007812 22.5078125 32.81640625 C23.33023438 32.87699219 24.15265625 32.93757813 25 33 C25 31.68 25 30.36 25 29 C19.39 28.67 13.78 28.34 8 28 C8 27.67 8 27.34 8 27 C14.27 27 20.54 27 27 27 C27 29.31 27 31.62 27 34 C18.09 34 9.18 34 0 34 C0 22.78 0 11.56 0 0 Z " fill="#23328A" transform="translate(96,321)"/>
<path d="M0 0 C2 2.1875 2 2.1875 3 4 C1.02 5.65 -0.96 7.3 -3 9 C-3.61875 8.484375 -4.2375 7.96875 -4.875 7.4375 C-9.38101042 5.36473521 -13.20627283 6.22741873 -18 7 C-18 5.68 -18 4.36 -18 3 C-17.05125 3.04125 -16.1025 3.0825 -15.125 3.125 C-11.89755144 3.34973818 -11.89755144 3.34973818 -10 1 C-9.01 0.67 -8.02 0.34 -7 0 C-9.06309376 0.11478413 -11.12548354 0.24226198 -13.1875 0.375 C-14.33605469 0.44460938 -15.48460937 0.51421875 -16.66796875 0.5859375 C-19.79959117 0.97509574 -22.15285809 1.6809851 -25 3 C-18.3346985 -4.6907325 -8.55325009 -4.60411435 0 0 Z " fill="#172CA7" transform="translate(220,323)"/>
<path d="M0 0 C1.98 0 3.96 0 6 0 C6 4.62 6 9.24 6 14 C5.01 14.33 4.02 14.66 3 15 C2.95875 15.763125 2.9175 16.52625 2.875 17.3125 C2 20 2 20 -0.9375 21.8125 C-4 23 -4 23 -6 23 C-4.25 19.125 -4.25 19.125 -2 18 C-0.81304447 14.43913342 -0.64904582 11.02668976 -0.4375 7.3125 C-0.37272461 6.2596582 -0.37272461 6.2596582 -0.30664062 5.18554688 C-0.2008264 3.45724794 -0.09993419 1.7286489 0 0 Z " fill="#1A2DAD" transform="translate(339,323)"/>
<path d="M0 0 C0.33 1.32 0.66 2.64 1 4 C0.34 4 -0.32 4 -1 4 C-1.33 7.63 -1.66 11.26 -2 15 C-0.35 15.33 1.3 15.66 3 16 C3.77321882 13.01758453 4.41196203 10.02419525 5 7 C5.33 7 5.66 7 6 7 C6.14695313 8.03060547 6.14695313 8.03060547 6.296875 9.08203125 C6.44640625 9.98308594 6.5959375 10.88414062 6.75 11.8125 C6.88921875 12.70582031 7.0284375 13.59914063 7.171875 14.51953125 C8.193343 17.579117 9.19721532 18.4602296 12 20 C16.20638975 20.75085268 19.3946611 20.40355927 23 18 C25 18.125 25 18.125 27 19 C28.75 21.0625 28.75 21.0625 30 23 C29.01 23.495 29.01 23.495 28 24 C27.34 23.01 26.68 22.02 26 21 C25.45214844 21.16113281 24.90429688 21.32226562 24.33984375 21.48828125 C21.69399615 22.06692238 19.2702388 22.16872234 16.5625 22.1875 C15.63566406 22.20167969 14.70882812 22.21585937 13.75390625 22.23046875 C10.82166627 21.98507562 8.66138611 21.22201577 6 20 C6 18.68 6 17.36 6 16 C5.67 16.99 5.34 17.98 5 19 C4.01 19.66 3.02 20.32 2 21 C3.65 22.98 5.3 24.96 7 27 C2.78771439 25.43989422 0.65453155 22.5154607 -2 19 C-3.87052858 13.38841426 -3.75605958 7.82714398 -1.5 2.375 C-1.005 1.59125 -0.51 0.8075 0 0 Z " fill="#202D8F" transform="translate(193,327)"/>
<path d="M0 0 C2.64 0 5.28 0 8 0 C8.33 0.66 8.66 1.32 9 2 C6.69 2.33 4.38 2.66 2 3 C2 12.57 2 22.14 2 32 C3.65 32 5.3 32 7 32 C7.33 26.72 7.66 21.44 8 16 C8.33 16 8.66 16 9 16 C9 21.94 9 27.88 9 34 C6.03 34 3.06 34 0 34 C0 22.78 0 11.56 0 0 Z " fill="#202E8E" transform="translate(315,321)"/>
<path d="M0 0 C2.24469451 0.91190715 3.42203265 1.99783754 5 3.8125 C3.87823088 7.17780737 3.54511927 7.43367479 0.5625 9 C-4.17509271 11.23197057 -8.83889675 11.60087456 -14 10.8125 C-14.99 10.1525 -15.98 9.4925 -17 8.8125 C-13.37 9.1425 -9.74 9.4725 -6 9.8125 C-6 8.4925 -6 7.1725 -6 5.8125 C-9.3 5.4825 -12.6 5.1525 -16 4.8125 C-15.67 3.4925 -15.34 2.1725 -15 0.8125 C-14.34 1.1425 -13.68 1.4725 -13 1.8125 C-8.25509165 2.03844802 -3.90621138 -0.36620732 0 0 Z " fill="#1C2B97" transform="translate(418,345.1875)"/>
<path d="M0 0 C0.78375 0.721875 1.5675 1.44375 2.375 2.1875 C2.375 3.5075 2.375 4.8275 2.375 6.1875 C-0.125 7.9375 -0.125 7.9375 -2.625 9.1875 C-3.305625 8.6925 -3.98625 8.1975 -4.6875 7.6875 C-8.21965009 5.88384889 -10.71136991 5.95728647 -14.625 6.1875 C-14.625 5.1975 -14.625 4.2075 -14.625 3.1875 C-11.325 3.5175 -8.025 3.8475 -4.625 4.1875 C-5.285 2.8675 -5.945 1.5475 -6.625 0.1875 C-8.275 0.5175 -9.925 0.8475 -11.625 1.1875 C-11.625 0.5275 -11.625 -0.1325 -11.625 -0.8125 C-16.34565967 0.73019924 -21.04164092 2.26544619 -25.625 4.1875 C-19.08220532 -3.3466272 -8.78207622 -5.2526366 0 0 Z " fill="#1E2E93" transform="translate(419.625,322.8125)"/>
<path d="M0 0 C10.23 0 20.46 0 31 0 C31 2.31 31 4.62 31 7 C27.37 7 23.74 7 20 7 C20 6.67 20 6.34 20 6 C22.97 6 25.94 6 29 6 C28.67 5.01 28.34 4.02 28 3 C19.42 3 10.84 3 2 3 C5.18762365 5.12508244 7.26512223 5.5020163 11 6 C11 6.33 11 6.66 11 7 C7.37 7 3.74 7 0 7 C0 4.69 0 2.38 0 0 Z " fill="#22318B" transform="translate(426,321)"/>
<path d="M0 0 C2.97 0 5.94 0 9 0 C9 11.22 9 22.44 9 34 C8.34 34 7.68 34 7 34 C7 23.44 7 12.88 7 2 C5.02 2 3.04 2 1 2 C1 6.95 1 11.9 1 17 C0.67 17 0.34 17 0 17 C0 11.39 0 5.78 0 0 Z " fill="#22318E" transform="translate(338,321)"/>
<path d="M0 0 C0.99 0.495 0.99 0.495 2 1 C2.33 8.92 2.66 16.84 3 25 C3.99 25 4.98 25 6 25 C7.03087881 19.71566323 7.31611358 14.48895352 7.5625 9.125 C7.62727539 7.80628906 7.62727539 7.80628906 7.69335938 6.4609375 C7.79869339 4.30744203 7.89977649 2.15373936 8 0 C8.33 0 8.66 0 9 0 C9 8.91 9 17.82 9 27 C6.03 27 3.06 27 0 27 C0 18.09 0 9.18 0 0 Z " fill="#1F2F8E" transform="translate(437,328)"/>
<path d="M0 0 C4.62 0 9.24 0 14 0 C14 1.98 14 3.96 14 6 C9.05 6 4.1 6 -1 6 C-1 3 -1 3 0 0 Z " fill="#1A2EA9" transform="translate(366,335)"/>
<path d="M0 0 C2.64 0 5.28 0 8 0 C10.5 3 10.5 3 12 6 C10.0625 5.625 10.0625 5.625 8 5 C7.67 4.34 7.34 3.68 7 3 C5.35 2.67 3.7 2.34 2 2 C1.67 12.23 1.34 22.46 1 33 C2.65 32.34 4.3 31.68 6 31 C6.33 26.05 6.66 21.1 7 16 C7.33 16 7.66 16 8 16 C8 21.94 8 27.88 8 34 C5.36 34 2.72 34 0 34 C0 22.78 0 11.56 0 0 Z " fill="#213094" transform="translate(274,321)"/>
<path d="M0 0 C0.61875 0.804375 1.2375 1.60875 1.875 2.4375 C4.68662656 5.82799085 5.30802842 5.93080284 9.75 6.375 C14.61503003 6.35724442 16.64413084 4.35586916 20 1 C19.43408019 4.28233489 18.65643297 5.95570158 16 8 C13.44140625 8.36328125 13.44140625 8.36328125 10.5625 8.3125 C9.61503906 8.30863281 8.66757813 8.30476563 7.69140625 8.30078125 C4.99410823 7.99934156 3.31514072 7.37375963 1 6 C1 6.66 1 7.32 1 8 C0.34 8 -0.32 8 -1 8 C-1 8.66 -1 9.32 -1 10 C4.37180176 12.62875405 9.04492601 13.6083965 15 14 C15 14.33 15 14.66 15 15 C8.05007306 15.51269953 2.83135703 15.02673384 -3 11 C-4.72265625 9.48828125 -4.72265625 9.48828125 -6 8 C-6 7.34 -6 6.68 -6 6 C-4.02 5.67 -2.04 5.34 0 5 C0 3.35 0 1.7 0 0 Z " fill="#202E8F" transform="translate(237,341)"/>
<path d="M0 0 C2.23167185 -0.36856864 2.23167185 -0.36856864 4 -1 C4.66 0.65 5.32 2.3 6 4 C4.741875 4.020625 3.48375 4.04125 2.1875 4.0625 C1.47980469 4.07410156 0.77210938 4.08570313 0.04296875 4.09765625 C-2 4 -2 4 -5 3 C-7.01224124 3.02266343 -7.01224124 3.02266343 -9 4 C-11.24850483 6.47661498 -11.24850483 6.47661498 -13 9 C-13.66 7.35 -14.32 5.7 -15 4 C-9.2538313 -0.04843704 -6.7865167 -1.35730334 0 0 Z " fill="#1A2DAD" transform="translate(409,323)"/>
<path d="M0 0 C0.66 0.33 1.32 0.66 2 1 C4.05559781 7.16679343 3.0535083 11.6696995 0.265625 17.30078125 C-1.24810555 19.33310467 -2.68286127 20.04101611 -5 21 C-5.10957031 20.40832031 -5.21914063 19.81664062 -5.33203125 19.20703125 C-6.25914403 14.58654237 -7.22351335 10.9123221 -10 7 C-7.03 7.495 -7.03 7.495 -4 8 C-4 9.98 -4 11.96 -4 14 C-2.35 13.67 -0.7 13.34 1 13 C0.67 8.71 0.34 4.42 0 0 Z " fill="#4161C9" transform="translate(272,267)"/>
<path d="M0 0 C6.27 0 12.54 0 19 0 C19 2.31 19 4.62 19 7 C10.42 7 1.84 7 -7 7 C-6.67 6.01 -6.34 5.02 -6 4 C-5.42894531 4.06058594 -4.85789062 4.12117188 -4.26953125 4.18359375 C2.81151694 4.91533959 9.90074094 5.47701383 17 6 C17 4.68 17 3.36 17 2 C11.39 1.67 5.78 1.34 0 1 C0 0.67 0 0.34 0 0 Z " fill="#1D2E96" transform="translate(104,348)"/>
<path d="M0 0 C1.32 0 2.64 0 4 0 C4 0.99 4 1.98 4 3 C4.66 3 5.32 3 6 3 C6.02708567 4.60407328 6.04643483 6.2082785 6.0625 7.8125 C6.07410156 8.70582031 6.08570313 9.59914063 6.09765625 10.51953125 C6 13 6 13 5 16 C4.01 15.67 3.02 15.34 2 15 C2 13.68 2 12.36 2 11 C1.01 10.34 0.02 9.68 -1 9 C-1 8.34 -1 7.68 -1 7 C-0.01 6.34 0.98 5.68 2 5 C1.34 3.35 0.68 1.7 0 0 Z " fill="#1A2CAD" transform="translate(359,323)"/>
<path d="M0 0 C3.30291019 3.01570061 3.92927659 5.16546371 4.3125 9.6875 C4.24232123 14.4508837 2.69558631 18.10733223 0 22 C-2.75 24.5 -2.75 24.5 -5 26 C-5.66 25.67 -6.32 25.34 -7 25 C-6.01 24.67 -5.02 24.34 -4 24 C-4 22.35 -4 20.7 -4 19 C-3.360625 18.773125 -2.72125 18.54625 -2.0625 18.3125 C0.1930152 17.17850506 0.1930152 17.17850506 0.75 14.8125 C1.20308092 9.71533964 1.20976692 4.99028853 0 0 Z " fill="#1F2C91" transform="translate(262,328)"/>
<path d="M0 0 C0.33 0.99 0.66 1.98 1 3 C1.99 3.33 2.98 3.66 4 4 C4.10807131 5.93627769 4.1856225 7.87427756 4.25 9.8125 C4.29640625 10.89144531 4.3428125 11.97039062 4.390625 13.08203125 C4.26171875 14.04496094 4.1328125 15.00789063 4 16 C2.68 16.99 1.36 17.98 0 19 C0 12.73 0 6.46 0 0 Z " fill="#1A2DAD" transform="translate(49,334)"/>
<path d="M0 0 C2.125 0.375 2.125 0.375 4 1 C3.67 3.31 3.34 5.62 3 8 C3.99 8 4.98 8 6 8 C6 9.32 6 10.64 6 12 C4.02 12.33 2.04 12.66 0 13 C0.33 11.68 0.66 10.36 1 9 C0.34 9 -0.32 9 -1 9 C-1.625 5.625 -1.625 5.625 -2 2 C-1.34 1.34 -0.68 0.68 0 0 Z " fill="#172DAA" transform="translate(231,334)"/>
<path d="M0 0 C11.10364498 -0.38808856 11.10364498 -0.38808856 15 2 C15.33 2.99 15.66 3.98 16 5 C16.99 5.33 17.98 5.66 19 6 C19 8.31 19 10.62 19 13 C19.66 13 20.32 13 21 13 C20.67 13.66 20.34 14.32 20 15 C19.34 15 18.68 15 18 15 C16.3553326 17.46326712 16.3553326 17.46326712 15 20 C14.01 19.67 13.02 19.34 12 19 C12.7115625 18.319375 12.7115625 18.319375 13.4375 17.625 C15.56540966 15.41197395 15.96998743 14.27011314 16.3125 11.1875 C16.17176344 7.98489289 16.17176344 7.98489289 14.75 5.25 C10.42551299 1.71178335 5.44110614 1.57319829 0 1 C0 0.67 0 0.34 0 0 Z " fill="#1E2D95" transform="translate(140,327)"/>
<path d="M0 0 C0.66 0.33 1.32 0.66 2 1 C2.05785647 4.95827235 2.09354717 8.9164367 2.125 12.875 C2.14175781 14.00292969 2.15851563 15.13085938 2.17578125 16.29296875 C2.18222656 17.36933594 2.18867188 18.44570313 2.1953125 19.5546875 C2.20578613 20.54968262 2.21625977 21.54467773 2.22705078 22.56982422 C2 25 2 25 0 27 C0.33 18.75 0.66 10.5 1 2 C-1.64 2 -4.28 2 -7 2 C-7.33 2.66 -7.66 3.32 -8 4 C-8.66 4 -9.32 4 -10 4 C-10.33 4.66 -10.66 5.32 -11 6 C-11.33 4.68 -11.66 3.36 -12 2 C-7.72258207 -1.24046813 -5.16252647 -1.16887392 0 0 Z " fill="#6FB6EB" transform="translate(255,269)"/>
<path d="M0 0 C2.86724686 0.57344937 3.8614515 0.8614515 6 3 C6.38662083 8.79931248 6.38086639 14.25284647 2.375 18.875 C1.92125 19.24625 1.4675 19.6175 1 20 C0.34 17.69 -0.32 15.38 -1 13 C-0.01 12.67 0.98 12.34 2 12 C2.80563638 9.89415562 2.80563638 9.89415562 3.1875 7.4375 C3.34605469 6.61121094 3.50460938 5.78492188 3.66796875 4.93359375 C3.77753906 4.29550781 3.88710937 3.65742188 4 3 C3.34 3 2.68 3 2 3 C2 2.34 2 1.68 2 1 C1.34 0.67 0.68 0.34 0 0 Z " fill="#3868D8" transform="translate(227,165)"/>
<path d="M0 0 C-2.77042109 2.77042109 -4.76533805 2.39796106 -8.625 2.625 C-9.81351563 2.69976562 -11.00203125 2.77453125 -12.2265625 2.8515625 C-13.59941406 2.92503906 -13.59941406 2.92503906 -15 3 C-15 3.66 -15 4.32 -15 5 C-16.65 5.66 -18.3 6.32 -20 7 C-20 7.66 -20 8.32 -20 9 C-20.66 9 -21.32 9 -22 9 C-22 9.66 -22 10.32 -22 11 C-22.66 11 -23.32 11 -24 11 C-21.76397991 5.7826198 -18.44678085 2.66750427 -13.1484375 0.52734375 C-8.83742284 -0.53081439 -4.40422823 -0.21503465 0 0 Z " fill="#3368D9" transform="translate(227,164)"/>
<path d="M0 0 C3.59231271 3.4896752 7.01867949 6.96644873 10 11 C9 14 9 14 6 16 C5.27617533 18.05925139 5.27617533 18.05925139 5 20 C4.01 18.35 3.02 16.7 2 15 C2.66 14.67 3.32 14.34 4 14 C4 11.69 4 9.38 4 7 C3.01 6.67 2.02 6.34 1 6 C0.67 4.02 0.34 2.04 0 0 Z " fill="#1B2EA0" transform="translate(328,328)"/>
<path d="M0 0 C0.66 0 1.32 0 2 0 C3.53266582 3.06533164 3.10276471 6.26754272 3.0625 9.625 C3.05798828 10.33140625 3.05347656 11.0378125 3.04882812 11.765625 C3.03703875 13.51045275 3.01910324 15.255237 3 17 C1.02 17.99 1.02 17.99 -1 19 C-1 16 -1 16 1 13 C1.83399875 10.08681086 1.83399875 10.08681086 1 7 C-1.46438889 4.93378748 -4.13539937 3.44508871 -7 2 C-3.98968256 1.06576355 -3.13349732 0.95550089 0 2 C0 1.34 0 0.68 0 0 Z " fill="#425CC7" transform="translate(274,228)"/>
<path d="M0 0 C12.21 0 24.42 0 37 0 C37.495 1.485 37.495 1.485 38 3 C37.34 3.99 36.68 4.98 36 6 C36 4.68 36 3.36 36 2 C34.63065308 2.00785522 34.63065308 2.00785522 33.23364258 2.01586914 C29.83243167 2.03295631 26.43126669 2.0454722 23.0300293 2.05493164 C21.56062091 2.05994669 20.09121748 2.06676033 18.62182617 2.07543945 C16.50438205 2.08762928 14.38700417 2.09325669 12.26953125 2.09765625 C10.36071167 2.10551147 10.36071167 2.10551147 8.41333008 2.11352539 C5.4629081 2.01539606 2.86053325 1.69063835 0 1 C0 0.67 0 0.34 0 0 Z " fill="#81C4EB" transform="translate(304,127)"/>
<path d="M0 0 C-0.90460727 3.70066609 -1.43868358 5.56497978 -4.5 7.9375 C-5.325 8.288125 -6.15 8.63875 -7 9 C-7.66 8.67 -8.32 8.34 -9 8 C-7.35 6.35 -5.7 4.7 -4 3 C-8.29 3 -12.58 3 -17 3 C-16.67 2.34 -16.34 1.68 -16 1 C-13.671875 0.5859375 -13.671875 0.5859375 -10.75 0.375 C-9.79609375 0.30023438 -8.8421875 0.22546875 -7.859375 0.1484375 C-5.23259147 0.01207442 -2.62962569 -0.02879152 0 0 Z " fill="#77C1EA" transform="translate(197,162)"/>
<path d="M0 0 C-2 1 -2 1 -4.5625 0.1875 C-7 -1 -7 -1 -8 -3 C-9.65 -3 -11.3 -3 -13 -3 C-13 -2.34 -13 -1.68 -13 -1 C-14.99954746 -0.95745644 -17.00041636 -0.95919217 -19 -1 C-19.33 -1.33 -19.66 -1.66 -20 -2 C-21.32594105 -2.36162029 -22.65938457 -2.69728039 -24 -3 C-15.21219405 -6.24766741 -7.73521891 -5.21286492 0 0 Z " fill="#1B2E92" transform="translate(261,325)"/>
<path d="M0 0 C0.33 0 0.66 0 1 0 C1 5.61 1 11.22 1 17 C-0.98 17 -2.96 17 -5 17 C-3.125 13.125 -3.125 13.125 -2 12 C-1.79160985 10.35892758 -1.63248275 8.71143707 -1.5 7.0625 C-1.10977702 2.21955403 -1.10977702 2.21955403 0 0 Z " fill="#223093" transform="translate(54,338)"/>
<path d="M0 0 C0.33 0.66 0.66 1.32 1 2 C0.525625 2.45375 0.05125 2.9075 -0.4375 3.375 C-2.09027808 4.93258204 -2.09027808 4.93258204 -3 7 C-3.66 7 -4.32 7 -5 7 C-4.979375 7.7425 -4.95875 8.485 -4.9375 9.25 C-4.99386104 11.72988569 -5.38643941 13.62245271 -6 16 C-6 17.32 -6 18.64 -6 20 C-5.34 20 -4.68 20 -4 20 C-4.33 21.32 -4.66 22.64 -5 24 C-7.80755356 21.19244644 -7.9788969 19.24901656 -8.3125 15.3125 C-8.25112224 10.56010778 -6.65394008 6.90021599 -4 3 C-1.75 1 -1.75 1 0 0 Z " fill="#212C92" transform="translate(236,323)"/>
<path d="M0 0 C3.96 0 7.92 0 12 0 C8.98522998 3.01477002 7.05013254 4.80035296 3.5 6.8125 C2.37078125 7.47185547 2.37078125 7.47185547 1.21875 8.14453125 C-1.34226011 9.13196296 -2.46741124 8.93820902 -5 8 C-5 7.34 -5 6.68 -5 6 C-4.37351563 5.79503906 -3.74703125 5.59007812 -3.1015625 5.37890625 C-2.28429687 5.10949219 -1.46703125 4.84007812 -0.625 4.5625 C0.18710938 4.29566406 0.99921875 4.02882812 1.8359375 3.75390625 C4.01031799 3.04820271 4.01031799 3.04820271 6 2 C3.03 1.505 3.03 1.505 0 1 C0 0.67 0 0.34 0 0 Z " fill="#88CFF3" transform="translate(175,145)"/>
<path d="M0 0 C-3.23907282 1.07969094 -5.60319906 1 -9 1 C-11.92635734 1.41805105 -14.79477498 1.95704593 -17.6875 2.5625 C-20 3 -20 3 -23 3 C-15.27351534 -2.44365964 -9.07798148 -3.54262692 0 0 Z " fill="#1E2E8E" transform="translate(218,322)"/>
<path d="M0 0 C0 0.33 0 0.66 0 1 C-0.90363281 1.13277344 -1.80726563 1.26554687 -2.73828125 1.40234375 C-4.50751953 1.66724609 -4.50751953 1.66724609 -6.3125 1.9375 C-8.07013672 2.19853516 -8.07013672 2.19853516 -9.86328125 2.46484375 C-13.01641403 2.92093031 -13.01641403 2.92093031 -16 4 C-16.33 4.99 -16.66 5.98 -17 7 C-18.6459651 8.68711423 -20.31237149 10.3545622 -22 12 C-22.33 12.66 -22.66 13.32 -23 14 C-23.66 14 -24.32 14 -25 14 C-23.10810822 8.15233449 -20.07437715 4.24462629 -14.875 1.125 C-10.10424528 -0.68386709 -5.01614751 -0.24491136 0 0 Z " fill="#81C3E8" transform="translate(297,125)"/>
<path d="M0 0 C2.38564077 0.57584432 4.66682784 1.22227595 7 2 C13.08568662 2.23294845 13.08568662 2.23294845 19 1 C18.34 2.32 17.68 3.64 17 5 C15.14375 4.9690625 15.14375 4.9690625 13.25 4.9375 C10.80635623 4.91602686 9.13716289 4.95297272 6.8125 5.75 C5 6 5 6 2.25 4.1875 C1.5075 3.465625 0.765 2.74375 0 2 C0 1.34 0 0.68 0 0 Z " fill="#3E69DE" transform="translate(239,251)"/>
<path d="M0 0 C0.33 0 0.66 0 1 0 C1 2.97 1 5.94 1 9 C1.66 9.33 2.32 9.66 3 10 C2.67 10.99 2.34 11.98 2 13 C-4.70459519 6.92560175 -4.70459519 6.92560175 -5.9375 3.0625 C-5.958125 2.381875 -5.97875 1.70125 -6 1 C-5.01 1.33 -4.02 1.66 -3 2 C-3.33 2.99 -3.66 3.98 -4 5 C-1.48916886 3.74458443 -1.12874554 2.49936512 0 0 Z " fill="#3C5ED0" transform="translate(215,242)"/>
<path d="M0 0 C0.33 0 0.66 0 1 0 C1 1.98 1 3.96 1 6 C1.66 6 2.32 6 3 6 C3 7.98 3 9.96 3 12 C3.66 12 4.32 12 5 12 C5.2475 12.804375 5.495 13.60875 5.75 14.4375 C6.72238859 17.171081 6.72238859 17.171081 9.125 17.8125 C10.053125 17.9053125 10.053125 17.9053125 11 18 C11 18.66 11 19.32 11 20 C5.66360874 18.369436 3.35609514 15.50877601 0.75 10.6875 C-0.27302173 7.02167213 -0.12885445 3.80120622 0 0 Z " fill="#202B8E" transform="translate(390,334)"/>
<path d="M0 0 C0.33 0 0.66 0 1 0 C1.66 3.3 2.32 6.6 3 10 C0.5 10.9375 0.5 10.9375 -3 11 C-5.96996983 8.96679484 -8.48166917 6.56307274 -11 4 C-10.67 3.34 -10.34 2.68 -10 2 C-9.51789063 2.433125 -9.03578125 2.86625 -8.5390625 3.3125 C-7.90742188 3.869375 -7.27578125 4.42625 -6.625 5 C-5.99851563 5.556875 -5.37203125 6.11375 -4.7265625 6.6875 C-3.09610167 8.20172487 -3.09610167 8.20172487 -1 8 C-1.020625 6.865625 -1.04125 5.73125 -1.0625 4.5625 C-1 1 -1 1 0 0 Z " fill="#79C6F0" transform="translate(244,146)"/>
<path d="M0 0 C0.33 0 0.66 0 1 0 C1 1.98 1 3.96 1 6 C6.94 6 12.88 6 19 6 C19 8.31 19 10.62 19 13 C18.67 13 18.34 13 18 13 C18 11.02 18 9.04 18 7 C16.71222656 7.08378906 15.42445313 7.16757812 14.09765625 7.25390625 C12.41928773 7.35704621 10.74090136 7.45989584 9.0625 7.5625 C8.21236328 7.61857422 7.36222656 7.67464844 6.48632812 7.73242188 C5.67744141 7.78076172 4.86855469 7.82910156 4.03515625 7.87890625 C3.2862915 7.9260376 2.53742676 7.97316895 1.76586914 8.02172852 C0 8 0 8 -1 7 C-1.125 4 -1.125 4 -1 1 C-0.67 0.67 -0.34 0.34 0 0 Z " fill="#1C2C8B" transform="translate(365,342)"/>
<path d="M0 0 C2.97 0 5.94 0 9 0 C6.702779 1.74271938 4.40133271 3.39911152 2 5 C2.66 6.32 3.32 7.64 4 9 C1.36 8.01 -1.28 7.02 -4 6 C-3.01 5.67 -2.02 5.34 -1 5 C-0.67 3.35 -0.34 1.7 0 0 Z " fill="#435ED4" transform="translate(268,258)"/>
<path d="M0 0 C0.66 0.99 1.32 1.98 2 3 C0.41727399 4.58272601 -1.38034003 4.34735747 -3.5625 4.5625 C-4.80193359 4.68818359 -4.80193359 4.68818359 -6.06640625 4.81640625 C-7.02353516 4.90728516 -7.02353516 4.90728516 -8 5 C-8 3.68 -8 2.36 -8 1 C-5.01726077 0.00575359 -3.10494126 -0.31845551 0 0 Z " fill="#162DAC" transform="translate(215,350)"/>
<path d="M0 0 C0.33 1.32 0.66 2.64 1 4 C1.92232422 3.76603516 1.92232422 3.76603516 2.86328125 3.52734375 C3.67152344 3.33269531 4.47976562 3.13804687 5.3125 2.9375 C6.11300781 2.74027344 6.91351563 2.54304688 7.73828125 2.33984375 C10 2 10 2 13 3 C9.31861363 4.6867443 6.41806576 5.27227584 2.375 5.25 C0.96347656 5.25773437 0.96347656 5.25773437 -0.4765625 5.265625 C-3 5 -3 5 -6 3 C-4.02 2.67 -2.04 2.34 0 2 C0 1.34 0 0.68 0 0 Z " fill="#202C8E" transform="translate(206,351)"/>
<path d="M0 0 C0 3 0 3 -2 5.125 C-5.84369428 7.52730892 -8.51060292 7.6956341 -13 8 C-12 6 -12 6 -9 5 C-8.67 4.34 -8.34 3.68 -8 3 C-6.35 3.33 -4.7 3.66 -3 4 C-2.67 3.01 -2.34 2.02 -2 1 C-1.34 0.67 -0.68 0.34 0 0 Z " fill="#1C2A91" transform="translate(162,347)"/>
<path d="M0 0 C3.3 0 6.6 0 10 0 C10 0.33 10 0.66 10 1 C7.36 1.33 4.72 1.66 2 2 C5.18762365 4.12508244 7.26512223 4.5020163 11 5 C11 5.33 11 5.66 11 6 C7.37 6 3.74 6 0 6 C0 4.02 0 2.04 0 0 Z " fill="#1F2D98" transform="translate(426,322)"/>
<path d="M0 0 C0.66 0 1.32 0 2 0 C1.67 2.97 1.34 5.94 1 9 C-0.32 9 -1.64 9 -3 9 C-4.06775224 7.03533587 -5.06553465 5.03144641 -6 3 C-5.67 2.34 -5.34 1.68 -5 1 C-4.34 1 -3.68 1 -3 1 C-2.34 2.65 -1.68 4.3 -1 6 C-0.67 4.02 -0.34 2.04 0 0 Z " fill="#3E60C7" transform="translate(233,278)"/>
<path d="M0 0 C0.33 0 0.66 0 1 0 C1.054348 2.0622048 1.09294961 4.12482816 1.125 6.1875 C1.14820313 7.33605469 1.17140625 8.48460937 1.1953125 9.66796875 C1.00484152 12.91740372 0.39360127 15.08660521 -1 18 C-5 13.25 -5 13.25 -5 11 C-2.525 11.495 -2.525 11.495 0 12 C0 8.04 0 4.08 0 0 Z " fill="#4164CC" transform="translate(301,184)"/>
<path d="M0 0 C2.64 0.66 5.28 1.32 8 2 C8.33 1.34 8.66 0.68 9 0 C9 0.66 9 1.32 9 2 C10.32 2 11.64 2 13 2 C12.40138258 4.35171131 11.73075648 6.6859378 11 9 C10.01 9.495 10.01 9.495 9 10 C9 8.35 9 6.7 9 5 C4.545 3.02 4.545 3.02 0 1 C0 0.67 0 0.34 0 0 Z " fill="#4461CC" transform="translate(274,186)"/>
<path d="M0 0 C-4.51350747 3.52273754 -7.28341664 4.45732667 -13 4 C-13.33 3.34 -13.66 2.68 -14 2 C-12.23225581 1.46877637 -10.46065917 0.95035927 -8.6875 0.4375 C-7.70136719 0.14746094 -6.71523438 -0.14257812 -5.69921875 -0.44140625 C-3 -1 -3 -1 0 0 Z " fill="#4067D6" transform="translate(266,207)"/>
<path d="M0 0 C0.33 0 0.66 0 1 0 C1 2.64 1 5.28 1 8 C2.32 8.33 3.64 8.66 5 9 C2.69 9.66 0.38 10.32 -2 11 C-1.85957123 9.35369672 -1.71250671 7.70795821 -1.5625 6.0625 C-1.48128906 5.14597656 -1.40007812 4.22945312 -1.31640625 3.28515625 C-1 1 -1 1 0 0 Z " fill="#6CB9F4" transform="translate(234,169)"/>
<path d="M0 0 C0 0.66 0 1.32 0 2 C-4.455 2.495 -4.455 2.495 -9 3 C-9 3.99 -9 4.98 -9 6 C-9.99 6 -10.98 6 -12 6 C-12 4.35 -12 2.7 -12 1 C-10.37512529 0.83211627 -8.75009558 0.66573213 -7.125 0.5 C-6.22007812 0.4071875 -5.31515625 0.314375 -4.3828125 0.21875 C-2 0 -2 0 0 0 Z " fill="#222DA0" transform="translate(152,347)"/>
<path d="M0 0 C1.32 1.32 2.64 2.64 4 4 C1.03 6.475 1.03 6.475 -2 9 C-2.99 8.01 -3.98 7.02 -5 6 C-4.01 5.34 -3.02 4.68 -2 4 C-2 4.66 -2 5.32 -2 6 C-1.34 6 -0.68 6 0 6 C0 4.02 0 2.04 0 0 Z " fill="#1E2E8E" transform="translate(219,323)"/>
<path d="M0 0 C3.63 1.65 7.26 3.3 11 5 C11 5.33 11 5.66 11 6 C5.25 7.125 5.25 7.125 3 6 C3 5.34 3 4.68 3 4 C2.34 4 1.68 4 1 4 C0.67 2.68 0.34 1.36 0 0 Z " fill="#405ECA" transform="translate(228,245)"/>
<path d="M0 0 C2.125 0.9375 2.125 0.9375 4 2 C3.34 3.32 2.68 4.64 2 6 C1.01 6 0.02 6 -1 6 C-1 5.34 -1 4.68 -1 4 C-1.66 4 -2.32 4 -3 4 C-2.67 3.01 -2.34 2.02 -2 1 C-1.34 0.67 -0.68 0.34 0 0 Z " fill="#456AED" transform="translate(283,170)"/>
<path d="M0 0 C0.33 0.66 0.66 1.32 1 2 C4.02934491 2.65772428 4.02934491 2.65772428 7 3 C5.1875 4.0625 5.1875 4.0625 3 5 C2.01 4.67 1.02 4.34 0 4 C-2.69433317 5.87197454 -2.69433317 5.87197454 -5 8 C-5 5 -5 5 -2.5 2.3125 C-1.675 1.549375 -0.85 0.78625 0 0 Z " fill="#3C5BCD" transform="translate(233,261)"/>
<path d="M0 0 C0.99 0.33 1.98 0.66 3 1 C3 1.66 3 2.32 3 3 C3.66 3 4.32 3 5 3 C5 5.97 5 8.94 5 12 C4.34 12 3.68 12 3 12 C2.86722656 11.38511719 2.73445313 10.77023437 2.59765625 10.13671875 C2.42105469 9.32847656 2.24445313 8.52023437 2.0625 7.6875 C1.88847656 6.88699219 1.71445313 6.08648437 1.53515625 5.26171875 C1.00113841 2.854599 1.00113841 2.854599 0 0 Z " fill="#222F94" transform="translate(254,330)"/>
<path d="M0 0 C1.98 0 3.96 0 6 0 C5.67 0.99 5.34 1.98 5 3 C5.66 3 6.32 3 7 3 C7.33 3.99 7.66 4.98 8 6 C7.34 6.66 6.68 7.32 6 8 C1.125 3.375 1.125 3.375 0 0 Z " fill="#7AC7F3" transform="translate(237,138)"/>
<path d="M0 0 C3.9252025 3.70090521 6.94580156 7.54959656 10 12 C8.06640625 11.625 8.06640625 11.625 6 11 C5.30062468 9.68352881 4.63270867 8.34977849 4 7 C3.01 6.67 2.02 6.34 1 6 C0.67 4.02 0.34 2.04 0 0 Z " fill="#202E8C" transform="translate(328,328)"/>
<path d="M0 0 C0.66 0 1.32 0 2 0 C2.33 1.98 2.66 3.96 3 6 C-1.95 4.02 -1.95 4.02 -7 2 C-3 1 -3 1 0 2 C0 1.34 0 0.68 0 0 Z " fill="#425ED7" transform="translate(274,228)"/>
<path d="M0 0 C2 1 2 1 3.125 4.0625 C3.41375 5.031875 3.7025 6.00125 4 7 C2.02 6.34 0.04 5.68 -2 5 C-2 3.68 -2 2.36 -2 1 C-1.34 0.67 -0.68 0.34 0 0 Z " fill="#75BFEB" transform="translate(185,172)"/>
<path d="M0 0 C0.99 0.33 1.98 0.66 3 1 C1.73058503 4.91402949 0.48832306 6.79072873 -3 9 C-3 7.35 -3 5.7 -3 4 C-2.01 4.495 -2.01 4.495 -1 5 C-0.67 3.35 -0.34 1.7 0 0 Z " fill="#7AC8F3" transform="translate(262,134)"/>
<path d="M0 0 C0.66 0.33 1.32 0.66 2 1 C1.01347016 4.31832766 0.31268497 5.76548627 -2.5 7.875 C-3.325 8.24625 -4.15 8.6175 -5 9 C-5.66 8.67 -6.32 8.34 -7 8 C-4.69 5.36 -2.38 2.72 0 0 Z " fill="#78C9F2" transform="translate(195,162)"/>
<path d="M0 0 C0.33 0.66 0.66 1.32 1 2 C-3.43076923 7.78461538 -3.43076923 7.78461538 -6.3125 8.875 C-6.869375 8.91625 -7.42625 8.9575 -8 9 C-7.67 8.01 -7.34 7.02 -7 6 C-5.66666667 5.33333333 -4.33333333 4.66666667 -3 4 C-1.26574227 1.96682993 -1.26574227 1.96682993 0 0 Z " fill="#7FC5EA" transform="translate(338,134)"/>
<path d="M0 0 C1.9375 0.625 1.9375 0.625 4 2 C4.75 5.125 4.75 5.125 5 8 C3 7 3 7 2 4 C-0.00016466 2.79117904 -0.00016466 2.79117904 -2 2 C-1.34 1.34 -0.68 0.68 0 0 Z " fill="#202E98" transform="translate(160,327)"/>
<path d="M0 0 C1.4540625 0.0309375 1.4540625 0.0309375 2.9375 0.0625 C1.6875 1.5625 1.6875 1.5625 -0.0625 3.0625 C-1.3825 3.0625 -2.7025 3.0625 -4.0625 3.0625 C-4.0625 4.0525 -4.0625 5.0425 -4.0625 6.0625 C-4.7225 6.0625 -5.3825 6.0625 -6.0625 6.0625 C-3.76028481 0.07674051 -3.76028481 0.07674051 0 0 Z " fill="#1D2B97" transform="translate(81.0625,321.9375)"/>
<path d="M0 0 C2.475 0.495 2.475 0.495 5 1 C4.67 1.99 4.34 2.98 4 4 C3.34 4 2.68 4 2 4 C2 6.64 2 9.28 2 12 C1.67 12 1.34 12 1 12 C0.67 8.04 0.34 4.08 0 0 Z " fill="#66BDF6" transform="translate(243,226)"/>
<path d="M0 0 C4.0369867 1.79421631 6.64480474 3.20551875 9 7 C7.35 7.33 5.7 7.66 4 8 C4 6.68 4 5.36 4 4 C2.68 3.34 1.36 2.68 0 2 C0 1.34 0 0.68 0 0 Z " fill="#405DC8" transform="translate(279,218)"/>
<path d="M0 0 C1.81325551 0.11351517 3.62563357 0.24112961 5.4375 0.375 C6.95150391 0.47941406 6.95150391 0.47941406 8.49609375 0.5859375 C9.73552734 0.79089844 9.73552734 0.79089844 11 1 C11.33 1.66 11.66 2.32 12 3 C10.14375 2.9690625 10.14375 2.9690625 8.25 2.9375 C5.3359175 2.93233319 2.79046673 3.06984442 0 4 C0 2.68 0 1.36 0 0 Z " fill="#1D2A8C" transform="translate(202,326)"/>
<path d="M0 0 C-4.43076923 3.07692308 -4.43076923 3.07692308 -7.3125 2.6875 C-8.1478125 2.3471875 -8.1478125 2.3471875 -9 2 C-9 1.34 -9 0.68 -9 0 C-5.62182575 -0.84454356 -3.32534757 -1.10844919 0 0 Z " fill="#7ACAF2" transform="translate(179,151)"/>
<path d="M0 0 C-1.39332574 3.36720387 -2.9789286 4.9859524 -6 7 C-6.66 6.67 -7.32 6.34 -8 6 C-7.01 5.67 -6.02 5.34 -5 5 C-5 4.01 -5 3.02 -5 2 C-2 0 -2 0 0 0 Z " fill="#1E2D88" transform="translate(263,347)"/>
<path d="M0 0 C0.33 0 0.66 0 1 0 C1.17835515 4.54805635 0.99785435 7.8794254 -1 12 C-1.33 12 -1.66 12 -2 12 C-2 9.69 -2 7.38 -2 5 C-1.34 5 -0.68 5 0 5 C0 3.35 0 1.7 0 0 Z " fill="#1C2A8C" transform="translate(165,335)"/>
<path d="M0 0 C1.5 1.375 1.5 1.375 3 3 C3 3.66 3 4.32 3 5 C1.35 5.33 -0.3 5.66 -2 6 C-2 4.68 -2 3.36 -2 2 C-1.34 2 -0.68 2 0 2 C0 1.34 0 0.68 0 0 Z " fill="#1A2EAB" transform="translate(62,337)"/>
<path d="M0 0 C2.31 0 4.62 0 7 0 C7.33 0.66 7.66 1.32 8 2 C5.36 2.33 2.72 2.66 0 3 C0 2.01 0 1.02 0 0 Z " fill="#1F3293" transform="translate(316,321)"/>
<path d="M0 0 C1.32 0.33 2.64 0.66 4 1 C4 1.66 4 2.32 4 3 C3.34 3 2.68 3 2 3 C2 3.66 2 4.32 2 5 C0.02 4.34 -1.96 3.68 -4 3 C-2.68 2.67 -1.36 2.34 0 2 C0 1.34 0 0.68 0 0 Z " fill="#415DD8" transform="translate(230,257)"/>
<path d="M0 0 C3.72433382 1.2125738 7.37802806 2.50859979 11 4 C6.99799622 5.60080151 3.95443764 4.29279692 0 3 C0 2.01 0 1.02 0 0 Z " fill="#85CCEF" transform="translate(314,146)"/>
<path d="M0 0 C1.98 0 3.96 0 6 0 C6.33 0.99 6.66 1.98 7 3 C6.01 4.485 6.01 4.485 5 6 C5 4.68 5 3.36 5 2 C3.35 2 1.7 2 0 2 C0 1.34 0 0.68 0 0 Z " fill="#8CCDEA" transform="translate(335,127)"/>
<path d="M0 0 C1.0625 1.8125 1.0625 1.8125 2 4 C1.67 4.99 1.34 5.98 1 7 C0.01 7 -0.98 7 -2 7 C-1.125 2.25 -1.125 2.25 0 0 Z " fill="#19298F" transform="translate(393,327)"/>
<path d="M0 0 C3.465 1.485 3.465 1.485 7 3 C7 3.33 7 3.66 7 4 C4.69 4.33 2.38 4.66 0 5 C0 3.33333333 0 1.66666667 0 0 Z " fill="#202B93" transform="translate(152,321)"/>
<path d="M0 0 C1.65 0 3.3 0 5 0 C4.67 0.99 4.34 1.98 4 3 C3.01 3.33 2.02 3.66 1 4 C0.01 3.34 -0.98 2.68 -2 2 C-1.34 2 -0.68 2 0 2 C0 1.34 0 0.68 0 0 Z " fill="#3B68E4" transform="translate(254,266)"/>
<path d="M0 0 C0.99 0.33 1.98 0.66 3 1 C3.33 1.99 3.66 2.98 4 4 C0.25 5.125 0.25 5.125 -2 4 C-1.34 2.68 -0.68 1.36 0 0 Z " fill="#3F5ED5" transform="translate(212,225)"/>
<path d="M0 0 C4.875 2.625 4.875 2.625 6 6 C3.5625 5.25 3.5625 5.25 1 4 C0.1875 1.875 0.1875 1.875 0 0 Z " fill="#77C1E9" transform="translate(218,128)"/>
<path d="" fill="#FFFFFF" transform="translate(0,0)"/>
<path d="" fill="#FFFFFF" transform="translate(0,0)"/>
<path d="" fill="#FFFFFF" transform="translate(0,0)"/>
<path d="" fill="#FFFFFF" transform="translate(0,0)"/>
<path d="" fill="#FFFFFF" transform="translate(0,0)"/>
<path d="" fill="#FFFFFF" transform="translate(0,0)"/>
<path d="" fill="#FFFFFF" transform="translate(0,0)"/>
<path d="" fill="#FFFFFF" transform="translate(0,0)"/>
<path d="" fill="#FFFFFF" transform="translate(0,0)"/>
<path d="" fill="#FFFFFF" transform="translate(0,0)"/>
<path d="" fill="#FFFFFF" transform="translate(0,0)"/>
<path d="" fill="#FFFFFF" transform="translate(0,0)"/>
<path d="" fill="#FFFFFF" transform="translate(0,0)"/>
<path d="" fill="#FFFFFF" transform="translate(0,0)"/>
<path d="" fill="#FFFFFF" transform="translate(0,0)"/>
<path d="" fill="#FFFFFF" transform="translate(0,0)"/>
<path d="" fill="#FFFFFF" transform="translate(0,0)"/>
<path d="" fill="#FFFFFF" transform="translate(0,0)"/>
<path d="" fill="#FFFFFF" transform="translate(0,0)"/>
<path d="" fill="#FFFFFF" transform="translate(0,0)"/>
<path d="" fill="#FFFFFF" transform="translate(0,0)"/>
<path d="" fill="#FFFFFF" transform="translate(0,0)"/>
<path d="" fill="#FFFFFF" transform="translate(0,0)"/>
<path d="" fill="#FFFFFF" transform="translate(0,0)"/>
<path d="" fill="#FFFFFF" transform="translate(0,0)"/>
<path d="" fill="#FFFFFF" transform="translate(0,0)"/>
<path d="" fill="#FFFFFF" transform="translate(0,0)"/>
<path d="" fill="#FFFFFF" transform="translate(0,0)"/>
<path d="" fill="#FFFFFF" transform="translate(0,0)"/>
<path d="" fill="#FFFFFF" transform="translate(0,0)"/>
<path d="" fill="#FFFFFF" transform="translate(0,0)"/>
<path d="" fill="#FFFFFF" transform="translate(0,0)"/>
<path d="" fill="#FFFFFF" transform="translate(0,0)"/>
<path d="" fill="#FFFFFF" transform="translate(0,0)"/>
<path d="" fill="#FFFFFF" transform="translate(0,0)"/>
<path d="" fill="#FFFFFF" transform="translate(0,0)"/>
<path d="" fill="#FFFFFF" transform="translate(0,0)"/>
<path d="" fill="#FFFFFF" transform="translate(0,0)"/>
<path d="" fill="#FFFFFF" transform="translate(0,0)"/>
<path d="" fill="#FFFFFF" transform="translate(0,0)"/>
<path d="" fill="#FFFFFF" transform="translate(0,0)"/>
<path d="" fill="#FFFFFF" transform="translate(0,0)"/>
<path d="" fill="#FFFFFF" transform="translate(0,0)"/>
<path d="" fill="#FFFFFF" transform="translate(0,0)"/>
<path d="" fill="#FFFFFF" transform="translate(0,0)"/>
<path d="" fill="#FFFFFF" transform="translate(0,0)"/>
<path d="" fill="#FFFFFF" transform="translate(0,0)"/>
<path d="" fill="#FFFFFF" transform="translate(0,0)"/>
<path d="" fill="#FFFFFF" transform="translate(0,0)"/>
<path d="" fill="#FFFFFF" transform="translate(0,0)"/>
<path d="" fill="#FFFFFF" transform="translate(0,0)"/>
<path d="" fill="#FFFFFF" transform="translate(0,0)"/>
<path d="" fill="#FFFFFF" transform="translate(0,0)"/>
<path d="" fill="#FFFFFF" transform="translate(0,0)"/>
<path d="" fill="#FFFFFF" transform="translate(0,0)"/>
<path d="" fill="#FFFFFF" transform="translate(0,0)"/>
<path d="" fill="#FFFFFF" transform="translate(0,0)"/>
<path d="" fill="#FFFFFF" transform="translate(0,0)"/>
<path d="" fill="#FFFFFF" transform="translate(0,0)"/>
<path d="" fill="#FFFFFF" transform="translate(0,0)"/>
<path d="" fill="#FFFFFF" transform="translate(0,0)"/>
<path d="" fill="#FFFFFF" transform="translate(0,0)"/>
<path d="" fill="#FFFFFF" transform="translate(0,0)"/>
<path d="" fill="#FFFFFF" transform="translate(0,0)"/>
<path d="" fill="#FFFFFF" transform="translate(0,0)"/>
<path d="" fill="#FFFFFF" transform="translate(0,0)"/>
<path d="" fill="#FFFFFF" transform="translate(0,0)"/>
<path d="" fill="#FFFFFF" transform="translate(0,0)"/>
<path d="" fill="#FFFFFF" transform="translate(0,0)"/>
<path d="" fill="#FFFFFF" transform="translate(0,0)"/>
<path d="" fill="#FFFFFF" transform="translate(0,0)"/>
<path d="" fill="#FFFFFF" transform="translate(0,0)"/>
<path d="" fill="#FFFFFF" transform="translate(0,0)"/>
<path d="" fill="#FFFFFF" transform="translate(0,0)"/>
<path d="" fill="#FFFFFF" transform="translate(0,0)"/>
<path d="" fill="#FFFFFF" transform="translate(0,0)"/>
<path d="" fill="#FFFFFF" transform="translate(0,0)"/>
<path d="" fill="#FFFFFF" transform="translate(0,0)"/>
<path d="" fill="#FFFFFF" transform="translate(0,0)"/>
<path d="" fill="#FFFFFF" transform="translate(0,0)"/>
<path d="" fill="#FFFFFF" transform="translate(0,0)"/>
<path d="" fill="#FFFFFF" transform="translate(0,0)"/>
<path d="" fill="#FFFFFF" transform="translate(0,0)"/>
</svg>
